<svg id="cat" xmlns="http://www.w3.org/2000/svg" width="143.639" height="76.596" viewBox="0 0 143.639 76.596">
  <path id="Path_300540" data-name="Path 300540" d="M36.238,63.952c2.889-2.408,3.388-5.4,3.388-8.067V44.631H23.919V59.9a3.955,3.955,0,0,1-3.951,3.953A3.829,3.829,0,0,1,16.162,59.9V16.644a3.828,3.828,0,0,1,3.806-3.951,3.953,3.953,0,0,1,3.951,3.951V32.007H39.608V16.071C39.605,7.265,33.852.02,19.833,0,5.44,0,0,7.281,0,16.086V61.244c0,8.729,6.929,15.335,15.788,15.333h4.867L36.238,63.952m61.931,1.772V16.1H87.332V1.479h39.236V16.1h-10.9V76.492h-4.646L98.168,65.724"/>
  <path id="Path_300541" data-name="Path 300541" d="M88.569,49.526,50.356,17.514l-39.6,32.012H88.569" transform="translate(16.633 27.071)" fill="#f6d33c"/>
  <path id="Path_300542" data-name="Path 300542" d="M51.637.613H29.744L16.99,57.832,40.739,38.668,65.5,59.415ZM36.5,35l4.236-21.625L44.941,35ZM112.223,2.914a4.25,4.25,0,0,1,3.129,1.3,4.272,4.272,0,0,1,1.288,3.126,4.3,4.3,0,0,1-1.288,3.144,4.413,4.413,0,0,1-6.257,0,4.31,4.31,0,0,1-1.283-3.144A4.276,4.276,0,0,1,109.1,4.215a4.251,4.251,0,0,1,3.124-1.3Zm5.155,4.417a4.909,4.909,0,0,0-1.5-3.617,5.132,5.132,0,0,0-8.76,3.617,4.978,4.978,0,0,0,1.489,3.64,5.132,5.132,0,0,0,7.27,0A4.968,4.968,0,0,0,117.378,7.331Zm-3.78-1.1a.863.863,0,0,1-.586.876,2.8,2.8,0,0,1-.955.125h-.9V5.2h.855c1.112,0,1.588.214,1.588,1.028Zm-3.439-1.723v5.628h1V7.924h.787a2.394,2.394,0,0,1,1.11.181,1.364,1.364,0,0,1,.532,1.283v.445l.023.181a.469.469,0,0,0,.013.064l.015.053h.924l-.036-.069c-.059-.44-.064-1.12-.064-1.12A1.449,1.449,0,0,0,113.2,7.524c1-.165,1.354-.616,1.354-1.387a1.4,1.4,0,0,0-.876-1.431,4.276,4.276,0,0,0-1.543-.2h-1.981Z" transform="translate(26.261 0.947)"/>
</svg>
