<svg xmlns="http://www.w3.org/2000/svg" width="111.929" height="75.239" viewBox="0 0 111.929 75.239">
  <g id="sany-logo-vector" transform="translate(85.942 -158.3)">
    <g id="Group_202157" data-name="Group 202157" transform="translate(-85.942 210.621)">
      <path id="Path_300543" data-name="Path 300543" d="M86,231.9H67.471a7.48,7.48,0,0,0-6.771,7.374,1.274,1.274,0,0,0,.082.548,7.585,7.585,0,0,0,6.99,6.771l11.76-.164c.6.082.987.384.987.932,0,.384-.219.685-.932.85H61.632v6.47H80.684a7.337,7.337,0,0,0-.247-14.529h-12.2a.892.892,0,0,1-.987-.85c0-.6.384-.85.932-.932H86Z" transform="translate(-60.7 -231.9)" fill="#ea0000"/>
      <path id="Path_300544" data-name="Path 300544" d="M173.833,231.9h-8.06L155,254.735l8.06.082,1.617-3.838H174.82l1.617,3.838h8Zm-6.552,13.158,2.549-6.141,2.549,6.141Z" transform="translate(-129.149 -231.9)" fill="#ea0000"/>
      <path id="Path_300545" data-name="Path 300545" d="M274.887,231.982l-8-.082-.082,22.753h6.086V239.521l10.691,15.132H291.5V231.982h-6.168l.164,15.132Z" transform="translate(-210.301 -231.9)" fill="#ea0000"/>
      <path id="Path_300546" data-name="Path 300546" d="M368.422,231.9H360.5l10.911,15v7.84h7.84v-7.922l10.993-14.831-8-.082-6.908,9.7Z" transform="translate(-278.315 -231.9)" fill="#ea0000"/>
    </g>
    <g id="Group_202158" data-name="Group 202158" transform="translate(-51.146 158.3)">
      <path id="Path_300547" data-name="Path 300547" d="M-125.037,262.057l11.98-3.536a.389.389,0,0,0,.219-.384.274.274,0,0,0-.3-.3l-1.754-.3h-.082a.32.32,0,0,1-.082-.384l6.853-7.84a2.6,2.6,0,0,1,2.769-1.069l-2.549-7.84-17.682,20.587a.737.737,0,0,0-.082.85.786.786,0,0,0,.713.219" transform="translate(127.247 -227.762)" fill="#ea0000"/>
      <path id="Path_300548" data-name="Path 300548" d="M-63.749,194.766-66.6,206.828a.556.556,0,0,0,.164.384.352.352,0,0,0,.466-.082l1.151-1.371a.081.081,0,0,0,.082-.082c.164-.082.3-.082.384.082l3.454,10.225a2.24,2.24,0,0,1-.768,2.769l8.224,1.535-8.992-25.522a.658.658,0,0,0-.6-.466.816.816,0,0,0-.713.466" transform="translate(84.244 -194.3)" fill="#ea0000"/>
      <path id="Path_300549" data-name="Path 300549" d="M-54.85,288.561l-9.074-8.443a.471.471,0,0,0-.466,0,.467.467,0,0,0-.164.466l.6,1.7v.082c0,.164-.082.219-.3.219L-74.861,280.5a2.447,2.447,0,0,1-2.083-2l-5.455,6.305,26.838,4.989a.747.747,0,0,0,.768-.3.883.883,0,0,0-.055-.932" transform="translate(95.713 -255.418)" fill="#ea0000"/>
      <path id="Path_300550" data-name="Path 300550" d="M-28.615,230.24A21.221,21.221,0,0,0-31.3,209.1a21.214,21.214,0,0,0-14.145-8c-.6,0-.685.6-.164.85,12.144,3.317,19.381,13.679,16.146,28.044-.082.3,0,.466.3.548.247.082.384,0,.548-.3" transform="translate(69.259 -199.236)" fill="#ea0000"/>
      <path id="Path_300551" data-name="Path 300551" d="M-115.712,320.987a21.459,21.459,0,0,0,19.765,8.224,20.832,20.832,0,0,0,13.981-8.142c.219-.384.082-.6-.164-.685-.164-.082-.384-.082-.548.219-8.909,8.827-21.519,9.677-32.43-.219a.549.549,0,0,0-.6-.164c-.164.137-.247.384,0,.768" transform="translate(120.006 -285.679)" fill="#ea0000"/>
      <path id="Path_300552" data-name="Path 300552" d="M-112.14,200.8a21.968,21.968,0,0,0-17.3,13.076,20.576,20.576,0,0,0,.219,16.064.415.415,0,0,0,.768,0c.082-.082.082-.219,0-.384-3.372-12.144,2.385-23.438,16.448-27.907.548-.082.3-.85-.137-.85" transform="translate(130.963 -199.018)" fill="#ea0000"/>
    </g>
  </g>
</svg>
