<svg xmlns="http://www.w3.org/2000/svg" xmlns:xlink="http://www.w3.org/1999/xlink" width="171.44" height="30.724" viewBox="0 0 171.44 30.724">
  <defs>
    <clipPath id="clip-path">
      <rect id="Rectangle_31822" data-name="Rectangle 31822" width="171.44" height="30.724" fill="none"/>
    </clipPath>
  </defs>
  <g id="Group_202165" data-name="Group 202165" transform="translate(0 0)">
    <path id="Path_300561" data-name="Path 300561" d="M141.151,34.768H136.4L132.468,21.3h-.085l-3.938,13.465h-4.78l-4.837-19.9h4.732L126.422,27.3l3.548-12.432h5L138.54,27.3l2.791-12.432h4.69Z" transform="translate(-75.897 -9.494)" fill="#41535d"/>
    <rect id="Rectangle_31821" data-name="Rectangle 31821" width="4.832" height="19.902" transform="translate(72.425 5.371)" fill="#41535d"/>
    <g id="Group_202164" data-name="Group 202164" transform="translate(0 0)">
      <g id="Group_202163" data-name="Group 202163" transform="translate(0 0)" clip-path="url(#clip-path)">
        <path id="Path_300562" data-name="Path 300562" d="M236.292,34.767l-4.319-7.9h-1.635v7.9h-4.7v-19.9h7.587a13.235,13.235,0,0,1,2.8.3,7.2,7.2,0,0,1,2.443,1,5.2,5.2,0,0,1,1.728,1.854,5.767,5.767,0,0,1,.649,2.867,5.283,5.283,0,0,1-1.1,3.4,6,6,0,0,1-3.035,1.97l5.194,8.517Zm-.2-13.8a2,2,0,0,0-.294-1.14,2.022,2.022,0,0,0-.762-.673,3.341,3.341,0,0,0-1.048-.324,7.884,7.884,0,0,0-1.114-.084H230.3v4.638H232.6a7.63,7.63,0,0,0,1.212-.1,3.949,3.949,0,0,0,1.132-.35,2.039,2.039,0,0,0,1.155-1.968" transform="translate(-144.118 -9.495)" fill="#41535d"/>
        <path id="Path_300563" data-name="Path 300563" d="M280.649,18.97v15.8h-4.8V18.97h-5.625v-4.1h16.049v4.1Z" transform="translate(-172.594 -9.495)" fill="#41535d"/>
        <path id="Path_300564" data-name="Path 300564" d="M329.244,33.98a17.871,17.871,0,0,1-4.258.478,12.325,12.325,0,0,1-4.4-.76,10.1,10.1,0,0,1-3.458-2.135,9.708,9.708,0,0,1-2.262-3.3,10.822,10.822,0,0,1-.82-4.288,10.879,10.879,0,0,1,.834-4.328,9.619,9.619,0,0,1,2.289-3.3,10.14,10.14,0,0,1,3.431-2.094,12.041,12.041,0,0,1,4.242-.731,12.992,12.992,0,0,1,4.381.716,9.036,9.036,0,0,1,3.294,1.925l-3.038,3.46a5.167,5.167,0,0,0-1.854-1.334,6.26,6.26,0,0,0-2.613-.522,5.823,5.823,0,0,0-2.335.462,5.618,5.618,0,0,0-1.855,1.295,5.868,5.868,0,0,0-1.222,1.968,6.944,6.944,0,0,0-.435,2.487,7.733,7.733,0,0,0,.394,2.531,5.368,5.368,0,0,0,1.168,1.981,5.3,5.3,0,0,0,1.907,1.292,6.85,6.85,0,0,0,2.6.464,9.656,9.656,0,0,0,1.6-.126,5.977,5.977,0,0,0,1.407-.408V26.082h-3.8V22.2h8.208V32.742a15.188,15.188,0,0,1-3.413,1.237" transform="translate(-200.583 -8.634)" fill="#41535d"/>
        <path id="Path_300565" data-name="Path 300565" d="M376.754,34.894v-19.9h13.379v4.05h-8.744v3.766h8.264v3.85h-8.264v4.133h9.245v4.1Z" transform="translate(-240.634 -9.575)" fill="#41535d"/>
        <path id="Path_300566" data-name="Path 300566" d="M437.055,34.894l-8.009-13.016h-.086l.112,13.016h-4.667v-19.9h5.483l7.983,12.988h.082l-.111-12.988h4.666v19.9Z" transform="translate(-271.07 -9.575)" fill="#41535d"/>
        <path id="Path_300567" data-name="Path 300567" d="M30,0H2.348A2.355,2.355,0,0,0,0,2.347v26.03a2.355,2.355,0,0,0,2.348,2.348H30a2.354,2.354,0,0,0,2.347-2.348V2.347A2.354,2.354,0,0,0,30,0m.542,27.813a1.108,1.108,0,0,1-1.1,1.105H2.91a1.109,1.109,0,0,1-1.1-1.105V2.91a1.109,1.109,0,0,1,1.1-1.105H29.438a1.108,1.108,0,0,1,1.1,1.105Z" transform="translate(0 0)" fill="#41535d"/>
        <path id="Path_300568" data-name="Path 300568" d="M34.489,9.614H10.261a.555.555,0,0,0-.553.553V32.839a.555.555,0,0,0,.553.552H34.489a.554.554,0,0,0,.551-.552V10.167a.554.554,0,0,0-.551-.553M33.115,31.061a.416.416,0,0,1-.415.415H12.054a.416.416,0,0,1-.414-.415V11.96a.415.415,0,0,1,.414-.413H32.7a.415.415,0,0,1,.415.413Z" transform="translate(-6.201 -6.141)" fill="#41535d"/>
        <path id="Path_300569" data-name="Path 300569" d="M26.932,28.309l-2.047,3.449-2.458-5.87H19.342L24.36,37.907h2.58l1.29-9.6Z" transform="translate(-12.354 -16.535)" fill="#41535d"/>
        <path id="Path_300570" data-name="Path 300570" d="M46.885,28.309l2.048,3.449,2.457-5.87h3.085L49.458,37.907H46.877l-1.289-9.6Z" transform="translate(-29.117 -16.535)" fill="#41535d"/>
      </g>
    </g>
  </g>
</svg>
