<svg xmlns="http://www.w3.org/2000/svg" width="40" height="40" viewBox="0 0 40 40">
  <g id="Group_202078" data-name="Group 202078" transform="translate(-90 -1262)">
    <circle id="Ellipse_15460" data-name="Ellipse 15460" cx="20" cy="20" r="20" transform="translate(90 1262)" fill="#ede6d3"/>
    <path id="Path_252898" data-name="Path 252898" d="M1351.771,750.376l-6.3,3.438a1.939,1.939,0,0,1-1.858,0l-6.3-3.438v6.87a.882.882,0,0,0,.882.882h12.7a.882.882,0,0,0,.882-.882Zm-14.009-.957,6.354,3.466a.881.881,0,0,0,.845,0l6.355-3.466a.885.885,0,0,0-.427-.11h-12.7A.883.883,0,0,0,1337.763,749.418Zm-1.312-.089a1.941,1.941,0,0,1,1.739-1.079h12.7a1.94,1.94,0,0,1,1.94,1.94v7.055a1.94,1.94,0,0,1-1.94,1.94h-12.7a1.94,1.94,0,0,1-1.94-1.94V750.19A1.93,1.93,0,0,1,1336.451,749.329Z" transform="translate(-1234.25 528.75)" fill="#293644" fill-rule="evenodd"/>
  </g>
</svg>
