<svg xmlns="http://www.w3.org/2000/svg" width="131.261" height="104.328" viewBox="0 0 131.261 104.328">
  <g id="Group_202131" data-name="Group 202131" transform="translate(-82.293 -516.293)">
    <g id="Group_2268" data-name="Group 2268" transform="translate(83 517)">
      <g id="Group_2267" data-name="Group 2267">
        <path id="Path_3282" data-name="Path 3282" d="M160.112,526H118.226L91,553.226v2.094l8.377,8.377v6.283l37.7,37.7s2.094,2.094,4.189,2.094a6.285,6.285,0,0,0,6.283-6.283c0-2.094-2.094-4.189-2.094-4.189l4.189,4.189s2.094,2.094,4.189,2.094a6.285,6.285,0,0,0,6.283-6.283c0-2.094-2.094-4.189-2.094-4.189l2.094,2.094s2.094,2.094,4.189,2.094a6.285,6.285,0,0,0,6.283-6.283c0-2.094-2.094-4.189-2.094-4.189L164.3,584.64s2.094,2.094,4.189,2.094a6.285,6.285,0,0,0,6.283-6.283c0-2.094-2.094-4.189-2.094-4.189l-2.094-2.094h2.094l8.377-8.377V561.6l6.283-6.283v-2.094Z" transform="translate(-74.246 -507.151)" fill="#f0e5c8"/>
        <path id="Path_3283" data-name="Path 3283" d="M105.472,557.377s-2.094,2.094-4.189,2.094A6.285,6.285,0,0,1,95,553.189c0-2.094,2.094-4.189,2.094-4.189Z" transform="translate(-69.868 -481.982)" fill="#f0e5c8"/>
        <path id="Path_3284" data-name="Path 3284" d="M109.472,561.377s-2.094,2.094-4.189,2.094A6.285,6.285,0,0,1,99,557.189c0-2.094,2.094-4.189,2.094-4.189Z" transform="translate(-65.491 -477.605)" fill="#f0e5c8"/>
        <path id="Path_3285" data-name="Path 3285" d="M113.472,565.377s-2.094,2.094-4.189,2.094A6.285,6.285,0,0,1,103,561.189c0-2.094,2.094-4.189,2.094-4.189Z" transform="translate(-61.114 -473.228)" fill="#f0e5c8"/>
        <path id="Path_3286" data-name="Path 3286" d="M117.472,569.377s-2.094,2.094-4.189,2.094A6.285,6.285,0,0,1,107,565.189c0-2.094,2.094-4.189,2.094-4.189Z" transform="translate(-56.737 -468.851)" fill="#f0e5c8"/>
        <path id="Path_3287" data-name="Path 3287" d="M83,554.7l12.566,12.566,37.7-37.7L120.7,517" transform="translate(-83 -517)" fill="#407050"/>
        <path id="Path_3288" data-name="Path 3288" d="M171.263,554.7,158.7,567.263l-37.7-37.7L133.566,517" transform="translate(-41.417 -517)" fill="#d1b35c"/>
        <line id="Line_3868" data-name="Line 3868" x2="41.382" transform="translate(44.324 18.938)" fill="none" stroke="#4d5152" stroke-miterlimit="10" stroke-width="2"/>
        <path id="Path_3289" data-name="Path 3289" d="M144.66,540l-6.283,6.283v4.189L130,558.849" transform="translate(-31.568 -491.831)" fill="none" stroke="#4d5152" stroke-linecap="round" stroke-miterlimit="10" stroke-width="2"/>
        <line id="Line_3869" data-name="Line 3869" x2="22.99" y2="22.99" transform="translate(70.993 58.48)" fill="none" stroke="#4d5152" stroke-linecap="round" stroke-miterlimit="10" stroke-width="2"/>
        <path id="Path_3290" data-name="Path 3290" d="M134.377,550s2.094,2.094,2.094,4.189a6.285,6.285,0,0,1-6.283,6.283c-2.094,0-4.189-2.094-4.189-2.094" transform="translate(-35.945 -480.888)" fill="none" stroke="#4d5152" stroke-linecap="round" stroke-miterlimit="10" stroke-width="2"/>
        <path id="Path_3291" data-name="Path 3291" d="M144.415,563.66s2.094,2.094,2.094,4.189a6.285,6.285,0,0,1-6.283,6.283c-2.094,0-4.189-2.094-4.189-2.094L113,549" transform="translate(-50.171 -481.982)" fill="none" stroke="#4d5152" stroke-linecap="round" stroke-miterlimit="10" stroke-width="2"/>
        <path id="Path_3292" data-name="Path 3292" d="M138.32,565.566s2.094,2.094,2.094,4.189a6.285,6.285,0,0,1-6.283,6.283c-2.094,0-4.189-2.094-4.189-2.094L109,553" transform="translate(-54.548 -477.605)" fill="none" stroke="#4d5152" stroke-linecap="round" stroke-miterlimit="10" stroke-width="2"/>
        <path id="Path_3293" data-name="Path 3293" d="M145.452,583.98s2.094,2.094,2.094,4.189a6.285,6.285,0,0,1-6.283,6.283c-2.094,0-4.189-2.094-4.189-2.094l-37.7-37.7v-6.283L91,540" transform="translate(-74.246 -491.831)" fill="none" stroke="#4d5152" stroke-linecap="round" stroke-miterlimit="10" stroke-width="2"/>
        <path id="Path_3294" data-name="Path 3294" d="M105.472,557.377s-2.094,2.094-4.189,2.094A6.285,6.285,0,0,1,95,553.189c0-2.094,2.094-4.189,2.094-4.189" transform="translate(-69.868 -481.982)" fill="none" stroke="#4d5152" stroke-linecap="round" stroke-miterlimit="10" stroke-width="2"/>
        <path id="Path_3295" data-name="Path 3295" d="M109.472,561.377s-2.094,2.094-4.189,2.094A6.285,6.285,0,0,1,99,557.189c0-2.094,2.094-4.189,2.094-4.189" transform="translate(-65.491 -477.605)" fill="none" stroke="#4d5152" stroke-linecap="round" stroke-miterlimit="10" stroke-width="2"/>
        <path id="Path_3296" data-name="Path 3296" d="M113.472,565.377s-2.094,2.094-4.189,2.094A6.285,6.285,0,0,1,103,561.189c0-2.094,2.094-4.189,2.094-4.189" transform="translate(-61.114 -473.228)" fill="none" stroke="#4d5152" stroke-linecap="round" stroke-miterlimit="10" stroke-width="2"/>
        <path id="Path_3297" data-name="Path 3297" d="M117.472,569.377s-2.094,2.094-4.189,2.094A6.285,6.285,0,0,1,107,565.189c0-2.094,2.094-4.189,2.094-4.189" transform="translate(-56.737 -468.851)" fill="none" stroke="#4d5152" stroke-linecap="round" stroke-miterlimit="10" stroke-width="2"/>
        <path id="Path_3298" data-name="Path 3298" d="M158.452,576.263l-27.226-27.226V536.472h-6.283l-10.472,10.471s-2.094,2.094-4.189,2.094A6.285,6.285,0,0,1,104,542.754c0-2.094,2.094-4.189,2.094-4.189L118.66,526" transform="translate(-60.02 -507.151)" fill="none" stroke="#4d5152" stroke-linecap="round" stroke-miterlimit="10" stroke-width="2"/>
        <path id="Path_3299" data-name="Path 3299" d="M131.566,536a6.285,6.285,0,0,1-6.283,6.283H119" transform="translate(-43.605 -496.208)" fill="none" stroke="#4d5152" stroke-miterlimit="10" stroke-width="2"/>
        <path id="Path_3300" data-name="Path 3300" d="M171.263,554.7,158.7,567.263l-37.7-37.7L133.566,517" transform="translate(-41.417 -517)" fill="none" stroke="#4d5152" stroke-miterlimit="10" stroke-width="2"/>
        <path id="Path_3301" data-name="Path 3301" d="M83,554.7l12.566,12.566,37.7-37.7L120.7,517" transform="translate(-83 -517)" fill="none" stroke="#4d5152" stroke-miterlimit="10" stroke-width="2"/>
        <line id="Line_3870" data-name="Line 3870" x2="3.678" y2="3.678" transform="translate(113.294 33.651)" fill="none" stroke="#4d5152" stroke-linecap="round" stroke-miterlimit="10" stroke-width="2"/>
        <line id="Line_3871" data-name="Line 3871" y1="3.678" x2="4.598" transform="translate(12.139 33.651)" fill="none" stroke="#4d5152" stroke-linecap="round" stroke-miterlimit="10" stroke-width="2"/>
      </g>
      <path id="Path_3302" data-name="Path 3302" d="M110,552" transform="translate(-53.454 -478.699)" fill="none" stroke="#4d5152" stroke-linecap="round" stroke-miterlimit="10" stroke-width="2"/>
      <path id="Path_3303" data-name="Path 3303" d="M108,554" transform="translate(-55.642 -476.511)" fill="none" stroke="#4d5152" stroke-linecap="round" stroke-miterlimit="10" stroke-width="2"/>
    </g>
  </g>
</svg>
