<svg xmlns="http://www.w3.org/2000/svg" width="40" height="40" viewBox="0 0 40 40">
  <g id="Group_202079" data-name="Group 202079" transform="translate(-80 -1312)">
    <circle id="Ellipse_15461" data-name="Ellipse 15461" cx="20" cy="20" r="20" transform="translate(80 1312)" fill="#ede6d3"/>
    <path id="Path_253039" data-name="Path 253039" d="M1006.741,1038.36a2.619,2.619,0,1,1,2.619,2.618A2.619,2.619,0,0,1,1006.741,1038.36Zm2.619-1.571a1.571,1.571,0,1,0,1.571,1.571A1.571,1.571,0,0,0,1009.36,1036.789Zm-6.11,1.571a6.11,6.11,0,0,1,12.22,0,11.294,11.294,0,0,1-2.182,6.185,20.993,20.993,0,0,1-3.151,3.608,1.147,1.147,0,0,1-1.553,0,20.991,20.991,0,0,1-3.151-3.608A11.294,11.294,0,0,1,1003.25,1038.36Zm6.11-5.062a5.062,5.062,0,0,0-5.062,5.062,10.26,10.26,0,0,0,2,5.6,19.957,19.957,0,0,0,2.989,3.421.1.1,0,0,0,.073.031.106.106,0,0,0,.073-.031,19.957,19.957,0,0,0,2.989-3.421,10.26,10.26,0,0,0,2-5.6A5.062,5.062,0,0,0,1009.36,1033.3Z" transform="translate(-909.36 291.646)" fill="#293644" fill-rule="evenodd"/>
  </g>
</svg>
