<svg xmlns="http://www.w3.org/2000/svg" width="135.242" height="136.392" viewBox="0 0 135.242 136.392">
  <g id="Group_202118" data-name="Group 202118" transform="translate(-3106 -941)">
    <g id="Group_513" data-name="Group 513" transform="translate(3107 991.429)">
      <g id="Group_512" data-name="Group 512">
        <g id="Group_510" data-name="Group 510">
          <path id="Path_562" data-name="Path 562" d="M3143.534,1031.621v-4.3l6.448-21.489V977.894a4.3,4.3,0,0,0-8.6,0v-4.3a4.3,4.3,0,0,0-8.6,0v-4.3a4.3,4.3,0,1,0-8.6,0v4.3a4.3,4.3,0,1,0-8.6,0V988.64h-4.3a4.3,4.3,0,0,0-4.3,4.3v12.894l4.3,8.6,6.447,8.6v8.6" transform="translate(-3106.999 -965)" fill="#f0e5c8"/>
        </g>
        <g id="Group_511" data-name="Group 511">
          <path id="Path_563" data-name="Path 563" d="M3138.938,1031.621v-4.3l6.448-21.489V977.894a4.3,4.3,0,1,0-8.6,0v-4.3a4.3,4.3,0,1,0-8.6,0v-4.3a4.3,4.3,0,0,0-8.6,0v4.3a4.3,4.3,0,1,0-8.6,0v27.938" transform="translate(-3102.404 -965)" fill="none" stroke="#4d5152" stroke-miterlimit="10" stroke-width="2"/>
          <line id="Line_706" data-name="Line 706" y2="21.801" transform="translate(17.714 8.296)" fill="none" stroke="#4d5152" stroke-miterlimit="10" stroke-width="2"/>
          <line id="Line_707" data-name="Line 707" y2="21.801" transform="translate(25.889 8.296)" fill="none" stroke="#4d5152" stroke-miterlimit="10" stroke-width="2"/>
          <line id="Line_708" data-name="Line 708" y2="17.714" transform="translate(34.065 12.383)" fill="none" stroke="#4d5152" stroke-miterlimit="10" stroke-width="2"/>
          <path id="Path_564" data-name="Path 564" d="M3115.6,976h-4.3a4.3,4.3,0,0,0-4.3,4.3v12.895l4.3,8.6,6.447,8.6v8.6" transform="translate(-3106.999 -952.36)" fill="none" stroke="#4d5152" stroke-miterlimit="10" stroke-width="2"/>
        </g>
      </g>
      <rect id="Rectangle_213" data-name="Rectangle 213" width="29.977" height="19.076" transform="translate(8.176 66.887)" fill="#fff"/>
      <path id="Path_565" data-name="Path 565" d="M3111,1015.342V996h30.087v19.342" transform="translate(-3102.404 -929.379)" fill="none" stroke="#4d5152" stroke-miterlimit="10" stroke-width="2"/>
      <line id="Line_709" data-name="Line 709" x1="4.088" transform="translate(28.614 75.062)" fill="none" stroke="#4d5152" stroke-miterlimit="10" stroke-width="2"/>
    </g>
    <g id="Group_517" data-name="Group 517" transform="translate(3149.981 942)">
      <g id="Group_516" data-name="Group 516">
        <g id="Group_514" data-name="Group 514">
          <path id="Path_566" data-name="Path 566" d="M3163.534,1008.621v-4.3l6.447-21.488V954.894a4.3,4.3,0,1,0-8.6,0v-4.3a4.3,4.3,0,0,0-8.6,0v-4.3a4.3,4.3,0,1,0-8.6,0v4.3a4.3,4.3,0,0,0-8.6,0V965.64h-4.3a4.3,4.3,0,0,0-4.3,4.3v12.895l4.3,8.6,6.447,8.6v8.6" transform="translate(-3127 -942)" fill="#f0e5c8"/>
        </g>
        <g id="Group_515" data-name="Group 515">
          <path id="Path_567" data-name="Path 567" d="M3158.938,1008.621v-4.3l6.447-21.488V954.894a4.3,4.3,0,1,0-8.6,0v-4.3a4.3,4.3,0,0,0-8.6,0v-4.3a4.3,4.3,0,1,0-8.6,0v4.3a4.3,4.3,0,0,0-8.6,0v27.938" transform="translate(-3122.403 -942)" fill="none" stroke="#4d5152" stroke-miterlimit="10" stroke-width="2"/>
          <line id="Line_710" data-name="Line 710" y2="21.801" transform="translate(16.972 8.671)" fill="none" stroke="#4d5152" stroke-miterlimit="10" stroke-width="2"/>
          <line id="Line_711" data-name="Line 711" y2="21.801" transform="translate(25.148 8.671)" fill="none" stroke="#4d5152" stroke-miterlimit="10" stroke-width="2"/>
          <line id="Line_712" data-name="Line 712" y2="17.714" transform="translate(34.686 12.759)" fill="none" stroke="#4d5152" stroke-miterlimit="10" stroke-width="2"/>
          <path id="Path_568" data-name="Path 568" d="M3135.6,953h-4.3a4.3,4.3,0,0,0-4.3,4.3v12.895l4.3,8.6,6.447,8.6v8.6" transform="translate(-3127 -929.36)" fill="none" stroke="#4d5152" stroke-miterlimit="10" stroke-width="2"/>
        </g>
      </g>
      <rect id="Rectangle_214" data-name="Rectangle 214" width="29.977" height="68.129" transform="translate(8.797 67.262)" fill="#407050"/>
      <path id="Path_569" data-name="Path 569" d="M3131,1041.77V973h30.087v68.77" transform="translate(-3122.403 -906.379)" fill="none" stroke="#4d5152" stroke-miterlimit="10" stroke-width="2"/>
      <line id="Line_713" data-name="Line 713" x1="4.088" transform="translate(27.873 75.438)" fill="none" stroke="#4d5152" stroke-miterlimit="10" stroke-width="2"/>
    </g>
    <g id="Group_521" data-name="Group 521" transform="translate(3197.261 972.087)">
      <g id="Group_520" data-name="Group 520">
        <g id="Group_518" data-name="Group 518">
          <path id="Path_570" data-name="Path 570" d="M3185.534,1022.621v-4.3l6.447-21.489V968.894a4.3,4.3,0,0,0-8.6,0v-4.3a4.3,4.3,0,1,0-8.6,0v-4.3a4.3,4.3,0,0,0-8.6,0v4.3a4.3,4.3,0,1,0-8.6,0V979.64h-4.3a4.3,4.3,0,0,0-4.3,4.3v12.895l4.3,8.6,6.448,8.6v8.6" transform="translate(-3149 -956)" fill="#f0e5c8"/>
        </g>
        <g id="Group_519" data-name="Group 519">
          <path id="Path_571" data-name="Path 571" d="M3180.938,1022.621v-4.3l6.447-21.489V968.894a4.3,4.3,0,1,0-8.6,0v-4.3a4.3,4.3,0,1,0-8.6,0v-4.3a4.3,4.3,0,0,0-8.6,0v4.3a4.3,4.3,0,1,0-8.6,0v27.938" transform="translate(-3144.404 -956)" fill="none" stroke="#4d5152" stroke-miterlimit="10" stroke-width="2"/>
          <line id="Line_714" data-name="Line 714" y2="21.801" transform="translate(17.383 8.561)" fill="none" stroke="#4d5152" stroke-miterlimit="10" stroke-width="2"/>
          <line id="Line_715" data-name="Line 715" y2="21.801" transform="translate(25.558 8.561)" fill="none" stroke="#4d5152" stroke-miterlimit="10" stroke-width="2"/>
          <line id="Line_716" data-name="Line 716" y2="17.714" transform="translate(33.734 12.649)" fill="none" stroke="#4d5152" stroke-miterlimit="10" stroke-width="2"/>
          <path id="Path_572" data-name="Path 572" d="M3157.6,967h-4.3a4.3,4.3,0,0,0-4.3,4.3v12.895l4.3,8.6,6.448,8.6v8.6" transform="translate(-3149 -943.36)" fill="none" stroke="#4d5152" stroke-miterlimit="10" stroke-width="2"/>
        </g>
      </g>
      <rect id="Rectangle_215" data-name="Rectangle 215" width="29.977" height="38.152" transform="translate(9.207 67.152)" fill="#d1b35c"/>
      <path id="Path_573" data-name="Path 573" d="M3153,1025.683V987h30.087v38.683" transform="translate(-3144.404 -920.379)" fill="none" stroke="#4d5152" stroke-miterlimit="10" stroke-width="2"/>
      <line id="Line_717" data-name="Line 717" x1="4.088" transform="translate(28.284 75.328)" fill="none" stroke="#4d5152" stroke-miterlimit="10" stroke-width="2"/>
    </g>
  </g>
</svg>
