<svg xmlns="http://www.w3.org/2000/svg" width="40" height="40" viewBox="0 0 40 40">
  <g id="Group_202077" data-name="Group 202077" transform="translate(-90 -1202)">
    <circle id="Ellipse_15459" data-name="Ellipse 15459" cx="20" cy="20" r="20" transform="translate(90 1202)" fill="#ede6d3"/>
    <path id="Path_252896" data-name="Path 252896" d="M1433.349,747.358a1.946,1.946,0,0,1,1.979-2.108h2.659a2.054,2.054,0,0,1,1.95,1.4l.862,2.586a2.055,2.055,0,0,1-.5,2.1l-.423.423a.169.169,0,0,0-.028.211,9.063,9.063,0,0,0,2.763,2.75.173.173,0,0,0,.218-.026l.414-.414a2.055,2.055,0,0,1,2.1-.5l2.586.862a2.054,2.054,0,0,1,1.4,1.95v2.659a1.946,1.946,0,0,1-2.108,1.979A15.511,15.511,0,0,1,1433.349,747.358Zm1.979-.987a.826.826,0,0,0-.863.877,14.389,14.389,0,0,0,12.877,12.877.826.826,0,0,0,.877-.863V756.6a.934.934,0,0,0-.639-.886l-2.586-.862a.937.937,0,0,0-.956.226l-.414.414a1.291,1.291,0,0,1-1.643.159,10.174,10.174,0,0,1-3.064-3.055,1.288,1.288,0,0,1,.17-1.624l.423-.423a.936.936,0,0,0,.226-.956l-.862-2.586a.934.934,0,0,0-.886-.639Z" transform="translate(-1331.339 468.75)" fill="#191e23" fill-rule="evenodd"/>
  </g>
</svg>
