<svg xmlns="http://www.w3.org/2000/svg" width="114.218" height="141.15" viewBox="0 0 114.218 141.15">
  <g id="Group_202117" data-name="Group 202117" transform="translate(-2557.679 -1634.036)">
    <g id="Group_806" data-name="Group 806" transform="translate(2558.679 1635.036)">
      <path id="Path_1141" data-name="Path 1141" d="M2663.218,1663.177c0,85.285-56.109,109.974-56.109,109.974S2551,1748.462,2551,1663.177v-15.711s8.978,8.977,24.688,8.977S2607.109,1634,2607.109,1634s15.71,22.444,31.421,22.444,24.688-8.977,24.688-8.977Z" transform="translate(-2551 -1634)" fill="#fff"/>
      <path id="Path_1142" data-name="Path 1142" d="M2663.218,1663.177c0,85.285-56.109,109.974-56.109,109.974S2551,1748.462,2551,1663.177v-15.711s8.978,8.977,24.688,8.977S2607.109,1634,2607.109,1634s15.71,22.444,31.421,22.444,24.688-8.977,24.688-8.977Z" transform="translate(-2551 -1634)" fill="none" stroke="#4d5152" stroke-linejoin="round" stroke-width="2"/>
      <path id="Path_1143" data-name="Path 1143" d="M2576,1723.353s29.369-15.417,41.733-58.353H2576Z" transform="translate(-2519.891 -1595.425)" fill="#d1b35c"/>
      <path id="Path_1144" data-name="Path 1144" d="M2557.4,1665c12.364,42.937,41.734,58.353,41.734,58.353V1665Z" transform="translate(-2543.03 -1595.425)" fill="#407050"/>
      <path id="Path_1145" data-name="Path 1145" d="M2607.421,1657.955c-20.2,0-31.421-17.955-31.421-17.955v56.109h41.733a145.233,145.233,0,0,0,5.4-40.4S2618.642,1657.955,2607.421,1657.955Z" transform="translate(-2519.891 -1626.534)" fill="#407050"/>
      <path id="Path_1146" data-name="Path 1146" d="M2602.132,1640a35.655,35.655,0,0,1-31.421,17.955c-11.222,0-15.71-2.245-15.71-2.245a145.335,145.335,0,0,0,5.4,40.4h41.734Z" transform="translate(-2546.023 -1626.534)" fill="#d1b35c"/>
    </g>
  </g>
</svg>
