<svg xmlns="http://www.w3.org/2000/svg" xmlns:xlink="http://www.w3.org/1999/xlink" width="712" height="400" viewBox="0 0 712 400">
  <defs>
    <clipPath id="clip-path">
      <rect id="Rectangle_141505" data-name="Rectangle 141505" width="542.313" height="271.156" fill="none"/>
    </clipPath>
  </defs>
  <g id="Group_442421" data-name="Group 442421" transform="translate(-226 -13458)">
    <rect id="Rectangle_140022" data-name="Rectangle 140022" width="712" height="400" rx="5" transform="translate(226 13458)" fill="#fff"/>
    <g id="Group_442338" data-name="Group 442338" transform="translate(310.844 13517.422)">
      <g id="Group_442270" data-name="Group 442270" clip-path="url(#clip-path)">
        <path id="Path_763142" data-name="Path 763142" d="M57.1,20.538H488.649c24.018,0,34.072,9.925,34.072,32.181V218.652c0,22-11.257,32.181-34.072,32.181H57.1c-29.646,0-34.072-11.859-34.072-32.181V52.719c0-20.538,7.82-32.181,34.072-32.181m188.1,47.219,1.289-3.48c.43-.859,1.289-.859,2.621-.859H255.6c.859,0,2.191,1.719,2.191,1.719v2.621Zm35.232,0,1.246-14.78c0-3.91-5.628-10.87-10.827-10.87-11.73-.859-22.987-1.289-32.955,0-5.2.43-10.4.859-12.159,6.1l-6.058,19.549H205.849l-3.7,16.327h24.662l-1.933,9.195c-26.9,0-39.056,13.921-37.294,27.885,2.148,16.714,22.987,23.073,49.883,20.323l3.91-20.709H220.113c-6.96,0-4.34-6.789-.43-7.949l23.416-.387,6.187-28.271h5.242l-11.644,56.887,22.557-.387L275.8,84.17h7.089l3.738-16.327h-6.187Zm67.2,0,1.289-3.48c.43-.859,1.289-.859,2.621-.859h6.488c.859,0,2.148,1.719,2.148,1.719l-.344,2.621Zm107.328,0,1.289-3.48c.43-.859,1.289-.859,2.621-.859h6.488c.859,0,2.148,1.719,2.148,1.719l-.344,2.621ZM323.317,103.332c-6.445,2.621-10.784.6-9.109-4.34l2.836-14.909h10.226ZM292.424,84.084c-2.578,13.319-8.249,30.935-4.211,37.595,3.48,5.972,10.827,6.359,18.647,4.769,4.039-.387,7.734-2.492,12.8-5.027l-4,19.592,22.557-.387,12.5-56.5h5.586l-11.644,56.887,21.7-.387,12.5-56.5h4.211L386.82,67.8h-3.953l1.246-14.78c0-3.91-5.628-10.87-10.87-10.87-13.448-.43-24.319-.43-32.955,0-5.2,0-10.4.859-12.159,6.1L322.071,67.8H291.823l-3.738,16.327h4.339ZM428.8,115.105H407.486l-.172.387,11.3,9.581-11.73,14.737L373.5,119.058l6.488-12.331c12.976-4.769,17.745-14.694,10.441-22.643h-1.676l3.738-16.327h36.865l6.058-19.549c1.719-5.242,6.96-6.1,12.159-6.1,9.538-.43,20.838-.43,32.955,0,5.2,0,10.827,6.96,10.827,10.87l-1.246,14.78h4.339l-3.738,16.327h-4.039l-12.5,56.5-21.7.387,11.644-56.887H458.53l-12.5,56.5-22.557.387Zm-13.964-17.53h17.573l2.75-13.491H420.462ZM195.966,155.622h78.155l-5.628,25.565H241.854l-11.73,50.657H204.216l9.281-50.657h-23.2Zm110.637,24.4L303.9,190.553h15.639c3.652,0,4.64-1.547,5.113-1.547,1.719,0,3.91-2.707,3.91-4.726,0-2.707-2.707-4.254-9.281-4.254Zm-23.975-24.4H327.57c12.46,0,29.818,11.859,29.818,24.877,0,22.17-11.987,34.072-32.482,34.072H297.537l-4.168,17.272H266.516Zm-185.268,0h31.58l21.053,41.462,8.249-41.462h28.83l-18.046,76.221h-32.1l-20.495-36.349L110.164,231.8H81.076Zm363.4,45.673c-3.91,16.37-23.932,29.6-47.649,29.6-27.111,0-49.11-17.057-49.11-37.638,0-20.624,22-37.9,49.11-37.9,23.932,0,44.469,13.663,48.379,31.365l-33,.43c-2.191-4.468-8.292-8.292-15.382-8.292-9.538,0-17.1,6.488-17.1,14.136,0,7.6,7.562,14.136,17.1,14.136a19.1,19.1,0,0,0,13.19-5.156ZM56.414,84.084,49.153,125.2,89.5,147.888l10.4-16.714-23.416-17.53,5.886-29.56h11.3c1.461,12.976-1.59,22.256-8.808,29.217l12.159,8.765c11.085-6.273,18.819-18.3,22.385-37.982h45.973l-3.351,13.1-40.86.387-3.48,17.53c3.48,6.359,7.39,11.944,14.737,13.534,3.051.816,8.679-1.59,11.73-7.175a28.371,28.371,0,0,0,2.148-6.359h11.085l-6.66,25.865h24.319l14.651-56.887h6.96l3.738-16.327H56.285l-3.7,16.327ZM41.892,0H500.636c23.03,0,41.677,19.335,41.677,41.376V230.038c0,21.784-19.592,41.118-41.677,41.118H41.892C19.592,271.156,0,252.767,0,230.038V41.376C0,18.6,18.862,0,41.892,0" fill="#007dc4" fill-rule="evenodd"/>
      </g>
    </g>
  </g>
</svg>
